<?xml version="1.0" encoding="utf-8" ?>
<svg baseProfile="full" height="900" version="1.1" viewBox="0 0 1600 900" width="1600" xmlns="http://www.w3.org/2000/svg" xmlns:ev="http://www.w3.org/2001/xml-events" xmlns:xlink="http://www.w3.org/1999/xlink"><defs /><rect fill="#F6F8FB" height="900" rx="0" ry="0" stroke="none" stroke-width="1" width="1600" x="0" y="0" /><rect fill="#17375E" height="70" rx="0" ry="0" stroke="none" stroke-width="1" width="1600" x="0" y="0" /><text fill="#FFFFFF" font-family="DejaVu Sans" font-size="24" font-style="normal" font-weight="bold" text-anchor="start" x="28" y="44">COMMUNITY HEALTH SCREENING</text><text fill="#FFFFFF" font-family="DejaVu Sans" font-size="16" font-style="normal" font-weight="normal" text-anchor="middle" x="520" y="42">Home</text><text fill="#FFFFFF" font-family="DejaVu Sans" font-size="16" font-style="normal" font-weight="normal" text-anchor="middle" x="655" y="42">Patients</text><rect fill="#FFFFFF" height="46" rx="5" ry="5" stroke="none" stroke-width="1" width="130" x="726" y="12" /><text fill="#17375E" font-family="DejaVu Sans" font-size="16" font-style="normal" font-weight="bold" text-anchor="middle" x="790" y="42">Screening</text><text fill="#FFFFFF" font-family="DejaVu Sans" font-size="16" font-style="normal" font-weight="normal" text-anchor="middle" x="925" y="42">Referrals</text><text fill="#FFFFFF" font-family="DejaVu Sans" font-size="16" font-style="normal" font-weight="normal" text-anchor="middle" x="1060" y="42">Reports</text><text fill="#FFFFFF" font-family="DejaVu Sans" font-size="16" font-style="normal" font-weight="normal" text-anchor="middle" x="1195" y="42">Administration</text><circle cx="1390" cy="35" fill="#18794E" r="7" stroke="none" stroke-width="1" /><text fill="#FFFFFF" font-family="DejaVu Sans" font-size="14" font-style="normal" font-weight="normal" text-anchor="start" x="1405" y="40">Offline ready</text><text fill="#FFFFFF" font-family="DejaVu Sans" font-size="14" font-style="normal" font-weight="bold" text-anchor="middle" x="1518" y="40">Nurse E. ▾</text><rect fill="#EAF2F8" height="64" rx="0" ry="0" stroke="#C8D3DF" stroke-width="1" width="1600" x="0" y="70" /><rect fill="none" height="40" rx="6" ry="6" stroke="none" stroke-width="1" width="190" x="30" y="82" /><text fill="#344054" font-family="DejaVu Sans" font-size="15" font-style="normal" font-weight="normal" text-anchor="middle" x="125" y="108">Today’s Session</text><rect fill="#FFFFFF" height="40" rx="6" ry="6" stroke="#0F6B78" stroke-width="2" width="190" x="235" y="82" /><text fill="#0F6B78" font-family="DejaVu Sans" font-size="15" font-style="normal" font-weight="bold" text-anchor="middle" x="330" y="108">New Screening</text><rect fill="none" height="40" rx="6" ry="6" stroke="none" stroke-width="1" width="190" x="440" y="82" /><text fill="#344054" font-family="DejaVu Sans" font-size="15" font-style="normal" font-weight="normal" text-anchor="middle" x="535" y="108">Draft Encounters</text><rect fill="none" height="40" rx="6" ry="6" stroke="none" stroke-width="1" width="190" x="645" y="82" /><text fill="#344054" font-family="DejaVu Sans" font-size="15" font-style="normal" font-weight="normal" text-anchor="middle" x="740" y="108">Session Summary</text><rect fill="#E7ECF2" height="54" rx="0" ry="0" stroke="none" stroke-width="1" width="1600" x="0" y="134" /><rect fill="#FFFFFF" height="40" rx="6" ry="6" stroke="#0F6B78" stroke-width="2" width="300" x="18" y="141" /><text fill="#17375E" font-family="DejaVu Sans" font-size="14" font-style="normal" font-weight="bold" text-anchor="start" x="34" y="166">Grace N. • BAB-000184</text><text fill="#667085" font-family="DejaVu Sans" font-size="16" font-style="normal" font-weight="bold" text-anchor="middle" x="300" y="166">×</text><rect fill="#D8E0EA" height="40" rx="6" ry="6" stroke="#C8D3DF" stroke-width="1" width="300" x="326" y="141" /><text fill="#17375E" font-family="DejaVu Sans" font-size="14" font-style="normal" font-weight="normal" text-anchor="start" x="342" y="166">Peter M. • BAB-000231</text><text fill="#667085" font-family="DejaVu Sans" font-size="16" font-style="normal" font-weight="bold" text-anchor="middle" x="608" y="166">×</text><rect fill="#D8E0EA" height="40" rx="6" ry="6" stroke="#C8D3DF" stroke-width="1" width="300" x="634" y="141" /><text fill="#17375E" font-family="DejaVu Sans" font-size="14" font-style="normal" font-weight="normal" text-anchor="start" x="650" y="166">Mary K. • BAB-000098</text><text fill="#667085" font-family="DejaVu Sans" font-size="16" font-style="normal" font-weight="bold" text-anchor="middle" x="916" y="166">×</text><rect fill="#FFFFFF" height="36" rx="6" ry="6" stroke="#C8D3DF" stroke-width="1" width="260" x="1310" y="143" /><text fill="#1F4E78" font-family="DejaVu Sans" font-size="14" font-style="normal" font-weight="bold" text-anchor="middle" x="1440.0" y="166.0">Search / open patient</text><rect fill="#FFFFFF" height="678" rx="10" ry="10" stroke="#C8D3DF" stroke-width="1" width="600" x="18" y="200" /><text fill="#17375E" font-family="DejaVu Sans" font-size="20" font-style="normal" font-weight="bold" text-anchor="start" x="40" y="236">Patient context</text><rect fill="#FFF1E8" height="28" rx="14" ry="14" stroke="none" stroke-width="1" width="140" x="450" y="216" /><text fill="#B54708" font-family="DejaVu Sans" font-size="13" font-style="normal" font-weight="bold" text-anchor="middle" x="520.0" y="235">Open referral</text><circle cx="72" cy="290" fill="#EAF2F8" r="32" stroke="none" stroke-width="1" /><text fill="#0F6B78" font-family="DejaVu Sans" font-size="19" font-style="normal" font-weight="bold" text-anchor="middle" x="72" y="300">GN</text><text fill="#1F2937" font-family="DejaVu Sans" font-size="20" font-style="normal" font-weight="bold" text-anchor="start" x="118" y="278">Grace N.</text><text fill="#667085" font-family="DejaVu Sans" font-size="13" font-style="normal" font-weight="normal" text-anchor="start" x="118" y="304">58 years • Female • Babungo • BAB-000184</text><text fill="#17375E" font-family="DejaVu Sans" font-size="15" font-style="normal" font-weight="bold" text-anchor="start" x="40" y="342">Last three screening readings</text><rect fill="#17375E" height="32" rx="0" ry="0" stroke="#FFFFFF" stroke-width="1" width="120" x="40" y="356" /><text fill="#FFFFFF" font-family="DejaVu Sans" font-size="13" font-style="normal" font-weight="bold" text-anchor="start" x="50" y="380">Date</text><rect fill="#17375E" height="32" rx="0" ry="0" stroke="#FFFFFF" stroke-width="1" width="100" x="160" y="356" /><text fill="#FFFFFF" font-family="DejaVu Sans" font-size="13" font-style="normal" font-weight="bold" text-anchor="start" x="170" y="380">Systolic</text><rect fill="#17375E" height="32" rx="0" ry="0" stroke="#FFFFFF" stroke-width="1" width="100" x="260" y="356" /><text fill="#FFFFFF" font-family="DejaVu Sans" font-size="13" font-style="normal" font-weight="bold" text-anchor="start" x="270" y="380">Diastolic</text><rect fill="#17375E" height="32" rx="0" ry="0" stroke="#FFFFFF" stroke-width="1" width="100" x="360" y="356" /><text fill="#FFFFFF" font-family="DejaVu Sans" font-size="13" font-style="normal" font-weight="bold" text-anchor="start" x="370" y="380">Pulse</text><rect fill="#17375E" height="32" rx="0" ry="0" stroke="#FFFFFF" stroke-width="1" width="130" x="460" y="356" /><text fill="#FFFFFF" font-family="DejaVu Sans" font-size="13" font-style="normal" font-weight="bold" text-anchor="start" x="470" y="380">Action</text><rect fill="#FFFFFF" height="36" rx="0" ry="0" stroke="#C8D3DF" stroke-width="1" width="120" x="40" y="388" /><text fill="#1F2937" font-family="DejaVu Sans" font-size="12" font-style="normal" font-weight="normal" text-anchor="start" x="50" y="414">Jul 19</text><rect fill="#FFFFFF" height="36" rx="0" ry="0" stroke="#C8D3DF" stroke-width="1" width="100" x="160" y="388" /><text fill="#1F2937" font-family="DejaVu Sans" font-size="12" font-style="normal" font-weight="normal" text-anchor="start" x="170" y="414">158</text><rect fill="#FFFFFF" height="36" rx="0" ry="0" stroke="#C8D3DF" stroke-width="1" width="100" x="260" y="388" /><text fill="#1F2937" font-family="DejaVu Sans" font-size="12" font-style="normal" font-weight="normal" text-anchor="start" x="270" y="414">96</text><rect fill="#FFFFFF" height="36" rx="0" ry="0" stroke="#C8D3DF" stroke-width="1" width="100" x="360" y="388" /><text fill="#1F2937" font-family="DejaVu Sans" font-size="12" font-style="normal" font-weight="normal" text-anchor="start" x="370" y="414">82</text><rect fill="#FFFFFF" height="36" rx="0" ry="0" stroke="#C8D3DF" stroke-width="1" width="130" x="460" y="388" /><text fill="#1F2937" font-family="DejaVu Sans" font-size="12" font-style="normal" font-weight="normal" text-anchor="start" x="470" y="414">Refer</text><rect fill="#F6F8FB" height="36" rx="0" ry="0" stroke="#C8D3DF" stroke-width="1" width="120" x="40" y="424" /><text fill="#1F2937" font-family="DejaVu Sans" font-size="12" font-style="normal" font-weight="normal" text-anchor="start" x="50" y="450">Jul 12</text><rect fill="#F6F8FB" height="36" rx="0" ry="0" stroke="#C8D3DF" stroke-width="1" width="100" x="160" y="424" /><text fill="#1F2937" font-family="DejaVu Sans" font-size="12" font-style="normal" font-weight="normal" text-anchor="start" x="170" y="450">151</text><rect fill="#F6F8FB" height="36" rx="0" ry="0" stroke="#C8D3DF" stroke-width="1" width="100" x="260" y="424" /><text fill="#1F2937" font-family="DejaVu Sans" font-size="12" font-style="normal" font-weight="normal" text-anchor="start" x="270" y="450">94</text><rect fill="#F6F8FB" height="36" rx="0" ry="0" stroke="#C8D3DF" stroke-width="1" width="100" x="360" y="424" /><text fill="#1F2937" font-family="DejaVu Sans" font-size="12" font-style="normal" font-weight="normal" text-anchor="start" x="370" y="450">79</text><rect fill="#F6F8FB" height="36" rx="0" ry="0" stroke="#C8D3DF" stroke-width="1" width="130" x="460" y="424" /><text fill="#1F2937" font-family="DejaVu Sans" font-size="12" font-style="normal" font-weight="normal" text-anchor="start" x="470" y="450">Repeat</text><rect fill="#FFFFFF" height="36" rx="0" ry="0" stroke="#C8D3DF" stroke-width="1" width="120" x="40" y="460" /><text fill="#1F2937" font-family="DejaVu Sans" font-size="12" font-style="normal" font-weight="normal" text-anchor="start" x="50" y="486">Jul 05</text><rect fill="#FFFFFF" height="36" rx="0" ry="0" stroke="#C8D3DF" stroke-width="1" width="100" x="160" y="460" /><text fill="#1F2937" font-family="DejaVu Sans" font-size="12" font-style="normal" font-weight="normal" text-anchor="start" x="170" y="486">146</text><rect fill="#FFFFFF" height="36" rx="0" ry="0" stroke="#C8D3DF" stroke-width="1" width="100" x="260" y="460" /><text fill="#1F2937" font-family="DejaVu Sans" font-size="12" font-style="normal" font-weight="normal" text-anchor="start" x="270" y="486">90</text><rect fill="#FFFFFF" height="36" rx="0" ry="0" stroke="#C8D3DF" stroke-width="1" width="100" x="360" y="460" /><text fill="#1F2937" font-family="DejaVu Sans" font-size="12" font-style="normal" font-weight="normal" text-anchor="start" x="370" y="486">80</text><rect fill="#FFFFFF" height="36" rx="0" ry="0" stroke="#C8D3DF" stroke-width="1" width="130" x="460" y="460" /><text fill="#1F2937" font-family="DejaVu Sans" font-size="12" font-style="normal" font-weight="normal" text-anchor="start" x="470" y="486">Repeat</text><rect fill="#EAF2F8" height="94" rx="8" ry="8" stroke="#C8D3DF" stroke-width="1" width="250" x="40" y="514" /><text fill="#0F6B78" font-family="DejaVu Sans" font-size="13" font-style="normal" font-weight="bold" text-anchor="start" x="56" y="540">30-day average BP</text><text fill="#17375E" font-family="DejaVu Sans" font-size="29" font-style="normal" font-weight="bold" text-anchor="start" x="56" y="582">151 / 93</text><text fill="#667085" font-family="DejaVu Sans" font-size="12" font-style="normal" font-weight="normal" text-anchor="start" x="184" y="580">mmHg</text><rect fill="#F6F8FB" height="94" rx="8" ry="8" stroke="#C8D3DF" stroke-width="1" width="270" x="310" y="514" /><text fill="#17375E" font-family="DejaVu Sans" font-size="13" font-style="normal" font-weight="bold" text-anchor="start" x="326" y="540">Referral status</text><text fill="#B54708" font-family="DejaVu Sans" font-size="14" font-style="normal" font-weight="bold" text-anchor="start" x="326" y="567">OPEN • Follow-up due Jul 30</text><text fill="#667085" font-family="DejaVu Sans" font-size="12" font-style="normal" font-weight="normal" text-anchor="start" x="326" y="592">Last contact: not yet recorded</text><text fill="#17375E" font-family="DejaVu Sans" font-size="15" font-style="normal" font-weight="bold" text-anchor="start" x="40" y="638">Blood pressure trend - recent encounters</text><line stroke="#C8D3DF" stroke-width="1" x1="55" x2="575" y1="778" y2="778" /><rect fill="#1F4E78" height="79.0886075949367" rx="3" ry="3" stroke="none" stroke-width="1" width="47.27272727272727" x="102.27272727272728" y="698.9113924050633" /><text fill="#667085" font-family="DejaVu Sans" font-size="11" font-style="normal" font-weight="normal" text-anchor="middle" x="125.90909090909092" y="796">Jun 21</text><rect fill="#1F4E78" height="80.75949367088607" rx="3" ry="3" stroke="none" stroke-width="1" width="47.27272727272727" x="196.8181818181818" y="697.2405063291139" /><text fill="#667085" font-family="DejaVu Sans" font-size="11" font-style="normal" font-weight="normal" text-anchor="middle" x="220.45454545454544" y="796">Jun 28</text><rect fill="#1F4E78" height="81.31645569620254" rx="3" ry="3" stroke="none" stroke-width="1" width="47.27272727272727" x="291.3636363636364" y="696.6835443037975" /><text fill="#667085" font-family="DejaVu Sans" font-size="11" font-style="normal" font-weight="normal" text-anchor="middle" x="315.0" y="796">Jul 05</text><rect fill="#1F4E78" height="84.10126582278481" rx="3" ry="3" stroke="none" stroke-width="1" width="47.27272727272727" x="385.90909090909093" y="693.8987341772151" /><text fill="#667085" font-family="DejaVu Sans" font-size="11" font-style="normal" font-weight="normal" text-anchor="middle" x="409.54545454545456" y="796">Jul 12</text><rect fill="#1F4E78" height="88.0" rx="3" ry="3" stroke="none" stroke-width="1" width="47.27272727272727" x="480.45454545454544" y="690.0" /><text fill="#667085" font-family="DejaVu Sans" font-size="11" font-style="normal" font-weight="normal" text-anchor="middle" x="504.09090909090907" y="796">Jul 19</text><text fill="#17375E" font-family="DejaVu Sans" font-size="15" font-style="normal" font-weight="bold" text-anchor="start" x="40" y="820">Weight trend</text><line stroke="#0F6B78" stroke-width="3" x1="170.0" x2="267.5" y1="848.0" y2="842.1666666666667" /><line stroke="#0F6B78" stroke-width="3" x1="267.5" x2="365.0" y1="842.1666666666667" y2="830.5000000000001" /><line stroke="#0F6B78" stroke-width="3" x1="365.0" x2="462.5" y1="830.5000000000001" y2="826.6111111111112" /><line stroke="#0F6B78" stroke-width="3" x1="462.5" x2="560.0" y1="826.6111111111112" y2="813.0" /><circle cx="170.0" cy="848.0" fill="#0F6B78" r="5" stroke="#FFFFFF" stroke-width="2" /><circle cx="267.5" cy="842.1666666666667" fill="#0F6B78" r="5" stroke="#FFFFFF" stroke-width="2" /><circle cx="365.0" cy="830.5000000000001" fill="#0F6B78" r="5" stroke="#FFFFFF" stroke-width="2" /><circle cx="462.5" cy="826.6111111111112" fill="#0F6B78" r="5" stroke="#FFFFFF" stroke-width="2" /><circle cx="560.0" cy="813.0" fill="#0F6B78" r="5" stroke="#FFFFFF" stroke-width="2" /><text fill="#667085" font-family="DejaVu Sans" font-size="12" font-style="normal" font-weight="normal" text-anchor="start" x="40" y="855">79.2 kg</text><text fill="#667085" font-family="DejaVu Sans" font-size="12" font-style="normal" font-weight="normal" text-anchor="start" x="518" y="855">81.0 kg</text><rect fill="#FFFFFF" height="678" rx="10" ry="10" stroke="#C8D3DF" stroke-width="1" width="946" x="636" y="200" /><text fill="#17375E" font-family="DejaVu Sans" font-size="20" font-style="normal" font-weight="bold" text-anchor="start" x="658" y="236">Current screening encounter</text><text fill="#667085" font-family="DejaVu Sans" font-size="13" font-style="normal" font-weight="normal" text-anchor="start" x="1301" y="235">Session: Jul 27 • St. Michael</text><circle cx="660" cy="276" fill="#0F6B78" r="16" stroke="none" stroke-width="1" /><text fill="#FFFFFF" font-family="DejaVu Sans" font-size="12" font-style="normal" font-weight="bold" text-anchor="middle" x="660" y="281">1</text><text fill="#0F6B78" font-family="DejaVu Sans" font-size="13" font-style="normal" font-weight="bold" text-anchor="start" x="684" y="281">Vitals</text><line stroke="#C8D3DF" stroke-width="2" x1="755" x2="800" y1="276" y2="276" /><circle cx="835" cy="276" fill="#E5E7EB" r="16" stroke="none" stroke-width="1" /><text fill="#667085" font-family="DejaVu Sans" font-size="12" font-style="normal" font-weight="bold" text-anchor="middle" x="835" y="281">2</text><text fill="#667085" font-family="DejaVu Sans" font-size="13" font-style="normal" font-weight="normal" text-anchor="start" x="859" y="281">Lifestyle</text><line stroke="#C8D3DF" stroke-width="2" x1="930" x2="975" y1="276" y2="276" /><circle cx="1010" cy="276" fill="#E5E7EB" r="16" stroke="none" stroke-width="1" /><text fill="#667085" font-family="DejaVu Sans" font-size="12" font-style="normal" font-weight="bold" text-anchor="middle" x="1010" y="281">3</text><text fill="#667085" font-family="DejaVu Sans" font-size="13" font-style="normal" font-weight="normal" text-anchor="start" x="1034" y="281">Food</text><line stroke="#C8D3DF" stroke-width="2" x1="1105" x2="1150" y1="276" y2="276" /><circle cx="1185" cy="276" fill="#E5E7EB" r="16" stroke="none" stroke-width="1" /><text fill="#667085" font-family="DejaVu Sans" font-size="12" font-style="normal" font-weight="bold" text-anchor="middle" x="1185" y="281">4</text><text fill="#667085" font-family="DejaVu Sans" font-size="13" font-style="normal" font-weight="normal" text-anchor="start" x="1209" y="281">OTC</text><line stroke="#C8D3DF" stroke-width="2" x1="1280" x2="1325" y1="276" y2="276" /><circle cx="1360" cy="276" fill="#E5E7EB" r="16" stroke="none" stroke-width="1" /><text fill="#667085" font-family="DejaVu Sans" font-size="12" font-style="normal" font-weight="bold" text-anchor="middle" x="1360" y="281">5</text><text fill="#667085" font-family="DejaVu Sans" font-size="13" font-style="normal" font-weight="normal" text-anchor="start" x="1384" y="281">Review</text><text fill="#17375E" font-family="DejaVu Sans" font-size="17" font-style="normal" font-weight="bold" text-anchor="start" x="660" y="325">Blood pressure readings</text><rect fill="#17375E" height="34" rx="0" ry="0" stroke="#FFFFFF" stroke-width="1" width="90" x="660" y="340" /><text fill="#FFFFFF" font-family="DejaVu Sans" font-size="13" font-style="normal" font-weight="bold" text-anchor="start" x="670" y="364">Reading</text><rect fill="#17375E" height="34" rx="0" ry="0" stroke="#FFFFFF" stroke-width="1" width="130" x="750" y="340" /><text fill="#FFFFFF" font-family="DejaVu Sans" font-size="13" font-style="normal" font-weight="bold" text-anchor="start" x="760" y="364">Systolic</text><rect fill="#17375E" height="34" rx="0" ry="0" stroke="#FFFFFF" stroke-width="1" width="130" x="880" y="340" /><text fill="#FFFFFF" font-family="DejaVu Sans" font-size="13" font-style="normal" font-weight="bold" text-anchor="start" x="890" y="364">Diastolic</text><rect fill="#17375E" height="34" rx="0" ry="0" stroke="#FFFFFF" stroke-width="1" width="110" x="1010" y="340" /><text fill="#FFFFFF" font-family="DejaVu Sans" font-size="13" font-style="normal" font-weight="bold" text-anchor="start" x="1020" y="364">Pulse</text><rect fill="#17375E" height="34" rx="0" ry="0" stroke="#FFFFFF" stroke-width="1" width="100" x="1120" y="340" /><text fill="#FFFFFF" font-family="DejaVu Sans" font-size="13" font-style="normal" font-weight="bold" text-anchor="start" x="1130" y="364">Arm</text><rect fill="#17375E" height="34" rx="0" ry="0" stroke="#FFFFFF" stroke-width="1" width="110" x="1220" y="340" /><text fill="#FFFFFF" font-family="DejaVu Sans" font-size="13" font-style="normal" font-weight="bold" text-anchor="start" x="1230" y="364">Position</text><rect fill="#17375E" height="34" rx="0" ry="0" stroke="#FFFFFF" stroke-width="1" width="115" x="1330" y="340" /><text fill="#FFFFFF" font-family="DejaVu Sans" font-size="13" font-style="normal" font-weight="bold" text-anchor="start" x="1340" y="364">Time</text><rect fill="#FFFFFF" height="46" rx="0" ry="0" stroke="#C8D3DF" stroke-width="1" width="90" x="660" y="374" /><text fill="#1F2937" font-family="DejaVu Sans" font-size="13" font-style="normal" font-weight="normal" text-anchor="start" x="670" y="403">1</text><rect fill="#FFFFFF" height="46" rx="0" ry="0" stroke="#C8D3DF" stroke-width="1" width="130" x="750" y="374" /><text fill="#1F2937" font-family="DejaVu Sans" font-size="13" font-style="normal" font-weight="normal" text-anchor="start" x="760" y="403">158</text><rect fill="#FFFFFF" height="46" rx="0" ry="0" stroke="#C8D3DF" stroke-width="1" width="130" x="880" y="374" /><text fill="#1F2937" font-family="DejaVu Sans" font-size="13" font-style="normal" font-weight="normal" text-anchor="start" x="890" y="403">96</text><rect fill="#FFFFFF" height="46" rx="0" ry="0" stroke="#C8D3DF" stroke-width="1" width="110" x="1010" y="374" /><text fill="#1F2937" font-family="DejaVu Sans" font-size="13" font-style="normal" font-weight="normal" text-anchor="start" x="1020" y="403">82</text><rect fill="#FFFFFF" height="46" rx="0" ry="0" stroke="#C8D3DF" stroke-width="1" width="100" x="1120" y="374" /><text fill="#1F2937" font-family="DejaVu Sans" font-size="13" font-style="normal" font-weight="normal" text-anchor="start" x="1130" y="403">Left</text><rect fill="#FFFFFF" height="46" rx="0" ry="0" stroke="#C8D3DF" stroke-width="1" width="110" x="1220" y="374" /><text fill="#1F2937" font-family="DejaVu Sans" font-size="13" font-style="normal" font-weight="normal" text-anchor="start" x="1230" y="403">Seated</text><rect fill="#FFFFFF" height="46" rx="0" ry="0" stroke="#C8D3DF" stroke-width="1" width="115" x="1330" y="374" /><text fill="#1F2937" font-family="DejaVu Sans" font-size="13" font-style="normal" font-weight="normal" text-anchor="start" x="1340" y="403">10:18</text><rect fill="#F6F8FB" height="46" rx="0" ry="0" stroke="#C8D3DF" stroke-width="1" width="90" x="660" y="420" /><text fill="#1F2937" font-family="DejaVu Sans" font-size="13" font-style="normal" font-weight="normal" text-anchor="start" x="670" y="449">2</text><rect fill="#F6F8FB" height="46" rx="0" ry="0" stroke="#C8D3DF" stroke-width="1" width="130" x="750" y="420" /><text fill="#1F2937" font-family="DejaVu Sans" font-size="13" font-style="normal" font-weight="normal" text-anchor="start" x="760" y="449">154</text><rect fill="#F6F8FB" height="46" rx="0" ry="0" stroke="#C8D3DF" stroke-width="1" width="130" x="880" y="420" /><text fill="#1F2937" font-family="DejaVu Sans" font-size="13" font-style="normal" font-weight="normal" text-anchor="start" x="890" y="449">94</text><rect fill="#F6F8FB" height="46" rx="0" ry="0" stroke="#C8D3DF" stroke-width="1" width="110" x="1010" y="420" /><text fill="#1F2937" font-family="DejaVu Sans" font-size="13" font-style="normal" font-weight="normal" text-anchor="start" x="1020" y="449">80</text><rect fill="#F6F8FB" height="46" rx="0" ry="0" stroke="#C8D3DF" stroke-width="1" width="100" x="1120" y="420" /><text fill="#1F2937" font-family="DejaVu Sans" font-size="13" font-style="normal" font-weight="normal" text-anchor="start" x="1130" y="449">Left</text><rect fill="#F6F8FB" height="46" rx="0" ry="0" stroke="#C8D3DF" stroke-width="1" width="110" x="1220" y="420" /><text fill="#1F2937" font-family="DejaVu Sans" font-size="13" font-style="normal" font-weight="normal" text-anchor="start" x="1230" y="449">Seated</text><rect fill="#F6F8FB" height="46" rx="0" ry="0" stroke="#C8D3DF" stroke-width="1" width="115" x="1330" y="420" /><text fill="#1F2937" font-family="DejaVu Sans" font-size="13" font-style="normal" font-weight="normal" text-anchor="start" x="1340" y="449">10:24</text><rect fill="#FFFFFF" height="46" rx="0" ry="0" stroke="#C8D3DF" stroke-width="1" width="90" x="660" y="466" /><text fill="#1F2937" font-family="DejaVu Sans" font-size="13" font-style="normal" font-weight="normal" text-anchor="start" x="670" y="495">3</text><rect fill="#FFFFFF" height="46" rx="0" ry="0" stroke="#C8D3DF" stroke-width="1" width="130" x="750" y="466" /><rect fill="#FFFFFF" height="30" rx="4" ry="4" stroke="#C8D3DF" stroke-width="1" width="114" x="758" y="474" /><rect fill="#FFFFFF" height="46" rx="0" ry="0" stroke="#C8D3DF" stroke-width="1" width="130" x="880" y="466" /><rect fill="#FFFFFF" height="30" rx="4" ry="4" stroke="#C8D3DF" stroke-width="1" width="114" x="888" y="474" /><rect fill="#FFFFFF" height="46" rx="0" ry="0" stroke="#C8D3DF" stroke-width="1" width="110" x="1010" y="466" /><rect fill="#FFFFFF" height="30" rx="4" ry="4" stroke="#C8D3DF" stroke-width="1" width="94" x="1018" y="474" /><rect fill="#FFFFFF" height="46" rx="0" ry="0" stroke="#C8D3DF" stroke-width="1" width="100" x="1120" y="466" /><rect fill="#FFFFFF" height="30" rx="4" ry="4" stroke="#C8D3DF" stroke-width="1" width="84" x="1128" y="474" /><rect fill="#FFFFFF" height="46" rx="0" ry="0" stroke="#C8D3DF" stroke-width="1" width="110" x="1220" y="466" /><rect fill="#FFFFFF" height="30" rx="4" ry="4" stroke="#C8D3DF" stroke-width="1" width="94" x="1228" y="474" /><rect fill="#FFFFFF" height="46" rx="0" ry="0" stroke="#C8D3DF" stroke-width="1" width="115" x="1330" y="466" /><rect fill="#FFFFFF" height="30" rx="4" ry="4" stroke="#C8D3DF" stroke-width="1" width="99" x="1338" y="474" /><rect fill="#FFFFFF" height="38" rx="6" ry="6" stroke="#C8D3DF" stroke-width="1" width="170" x="660" y="522" /><text fill="#1F4E78" font-family="DejaVu Sans" font-size="14" font-style="normal" font-weight="bold" text-anchor="middle" x="745.0" y="546.0">+ Add reading</text><rect fill="#FFFFFF" height="38" rx="6" ry="6" stroke="#C8D3DF" stroke-width="1" width="130" x="842" y="522" /><text fill="#1F4E78" font-family="DejaVu Sans" font-size="14" font-style="normal" font-weight="bold" text-anchor="middle" x="907.0" y="546.0">Save draft</text><text fill="#17375E" font-family="DejaVu Sans" font-size="17" font-style="normal" font-weight="bold" text-anchor="start" x="660" y="590">Additional current measurements</text><text fill="#344054" font-family="DejaVu Sans" font-size="13" font-style="normal" font-weight="bold" text-anchor="start" x="660" y="605">Weight (kg)</text><rect fill="#FFFFFF" height="42" rx="6" ry="6" stroke="#C8D3DF" stroke-width="1" width="180" x="660" y="613" /><text fill="#1F2937" font-family="DejaVu Sans" font-size="15" font-style="normal" font-weight="normal" text-anchor="start" x="672" y="644">81.0</text><text fill="#344054" font-family="DejaVu Sans" font-size="13" font-style="normal" font-weight="bold" text-anchor="start" x="858" y="605">Waist (optional)</text><rect fill="#FFFFFF" height="42" rx="6" ry="6" stroke="#C8D3DF" stroke-width="1" width="190" x="858" y="613" /><text fill="#667085" font-family="DejaVu Sans" font-size="15" font-style="normal" font-weight="normal" text-anchor="start" x="870" y="644">Not collected</text><text fill="#344054" font-family="DejaVu Sans" font-size="13" font-style="normal" font-weight="bold" text-anchor="start" x="1066" y="605">Notes</text><rect fill="#FFFFFF" height="42" rx="6" ry="6" stroke="#C8D3DF" stroke-width="1" width="220" x="1066" y="613" /><text fill="#667085" font-family="DejaVu Sans" font-size="15" font-style="normal" font-weight="normal" text-anchor="start" x="1078" y="644">Clinical observation only</text><rect fill="#FFF4CE" height="112" rx="10" ry="10" stroke="#9A6700" stroke-width="2" width="898" x="660" y="710" /><circle cx="694" cy="748" fill="#9A6700" r="13" stroke="none" stroke-width="1" /><text fill="#FFFFFF" font-family="DejaVu Sans" font-size="13" font-style="normal" font-weight="bold" text-anchor="middle" x="694" y="753">!</text><text fill="#9A6700" font-family="DejaVu Sans" font-size="17" font-style="normal" font-weight="bold" text-anchor="start" x="724" y="740">Protocol next action: Repeat measurement before completion</text><text fill="#344054" font-family="DejaVu Sans" font-size="14" font-style="normal" font-weight="normal" text-anchor="start" x="724" y="766">Reason: required number of valid readings has not yet been completed.</text><text fill="#B42318" font-family="DejaVu Sans" font-size="13" font-style="normal" font-weight="bold" text-anchor="start" x="724" y="790">This is a screening action, not a diagnosis.</text><rect fill="#FFFFFF" height="38" rx="6" ry="6" stroke="#C8D3DF" stroke-width="1" width="160" x="1200" y="832" /><text fill="#1F4E78" font-family="DejaVu Sans" font-size="14" font-style="normal" font-weight="bold" text-anchor="middle" x="1280.0" y="856.0">Previous</text><rect fill="#1F4E78" height="38" rx="6" ry="6" stroke="#1F4E78" stroke-width="1" width="186" x="1372" y="832" /><text fill="#FFFFFF" font-family="DejaVu Sans" font-size="14" font-style="normal" font-weight="bold" text-anchor="middle" x="1465.0" y="856.0">Continue to lifestyle</text><line stroke="#C8D3DF" stroke-width="1" x1="0" x2="1600" y1="866" y2="866" /><text fill="#667085" font-family="DejaVu Sans" font-size="12" font-style="normal" font-weight="normal" text-anchor="start" x="24" y="888">Concept UX - planned / in progress</text><text fill="#667085" font-family="DejaVu Sans" font-size="12" font-style="normal" font-weight="normal" text-anchor="end" x="1576" y="888">Windows desktop • Offline-first</text></svg>